<svg width="24" height="24" viewBox="0 0 24 24" fill="none" xmlns="http://www.w3.org/2000/svg">
<mask id="path-1-inside-1_0_78" fill="white">
<path d="M21.4078 11.3564L20.1853 11.1595C20.1064 11.1462 20.0338 11.108 19.9781 11.0505C19.9225 10.9929 19.8867 10.9191 19.876 10.8398C19.8525 10.6898 19.8291 10.5393 19.7963 10.394C19.7804 10.316 19.7895 10.235 19.8224 10.1624C19.8552 10.0899 19.91 10.0295 19.9791 9.98994L21.0614 9.38901C21.1434 9.34712 21.2072 9.27673 21.2408 9.1911C21.2745 9.10546 21.2757 9.01048 21.2442 8.92401L21.0567 8.40838C21.0254 8.32168 20.9629 8.2497 20.8815 8.2064C20.8001 8.16309 20.7056 8.15155 20.6161 8.17401L19.4025 8.40838C19.3236 8.42365 19.2419 8.41318 19.1694 8.37849C19.0969 8.3438 19.0375 8.28675 18.9999 8.21573C18.9296 8.08448 18.8546 7.95307 18.7749 7.82151C18.7328 7.7531 18.7133 7.67318 18.7192 7.59308C18.7251 7.51299 18.7561 7.43678 18.8077 7.37526L19.6182 6.44057C19.681 6.37369 19.7172 6.28608 19.7198 6.19433C19.7223 6.10259 19.6912 6.01308 19.6322 5.94276L19.2811 5.52088C19.2226 5.44993 19.1397 5.40336 19.0487 5.39027C18.9577 5.37718 18.8651 5.39851 18.7889 5.4501L17.7253 6.08901C17.657 6.12952 17.5775 6.14727 17.4984 6.13969C17.4193 6.13211 17.3446 6.09959 17.2852 6.04682C17.1727 5.94791 17.0555 5.84948 16.9383 5.75526C16.876 5.70573 16.831 5.63766 16.81 5.56089C16.7889 5.48411 16.7928 5.40263 16.8211 5.32823L17.2617 4.16807C17.2992 4.0839 17.3044 3.98887 17.2763 3.90112C17.2482 3.81336 17.1888 3.73902 17.1094 3.69229L16.6313 3.41526C16.5515 3.36995 16.4578 3.35546 16.3681 3.37456C16.2783 3.39365 16.1987 3.44499 16.1442 3.51885L15.3642 4.49573C15.3207 4.55721 15.2577 4.60221 15.1854 4.62347C15.1131 4.64473 15.0357 4.64101 14.9658 4.61291C14.9658 4.61291 14.7033 4.5051 14.5064 4.43901C14.4309 4.41384 14.3654 4.3653 14.3193 4.30042C14.2732 4.23553 14.2489 4.15766 14.25 4.07807L14.2688 2.83823C14.2743 2.74601 14.2459 2.65496 14.1889 2.58225C14.1319 2.50954 14.0503 2.4602 13.9594 2.44354L13.4161 2.34979C13.3252 2.33404 13.2316 2.35208 13.1531 2.40051C13.0745 2.44895 13.0163 2.52443 12.9896 2.61276L12.5864 3.78698C12.5606 3.86266 12.5112 3.9281 12.4455 3.97372C12.3798 4.01934 12.3012 4.04277 12.2213 4.04057H11.7619C11.6821 4.04226 11.6037 4.01863 11.5381 3.97308C11.4725 3.92752 11.4231 3.86238 11.3967 3.78698L10.9936 2.61276C10.9668 2.52443 10.9087 2.44895 10.8301 2.40051C10.7516 2.35208 10.658 2.33404 10.5671 2.34979L10.0238 2.44354C9.93291 2.4602 9.85128 2.50954 9.79429 2.58225C9.7373 2.65496 9.70888 2.74601 9.7144 2.83823L9.73315 4.07807C9.73429 4.15785 9.70994 4.23592 9.66366 4.30091C9.61738 4.36591 9.55157 4.41445 9.47581 4.43948C9.368 4.48166 9.13362 4.57119 9.02112 4.61338C8.88987 4.66026 8.73518 4.62276 8.60862 4.47698L7.83472 3.52354C7.78 3.44998 7.70024 3.39902 7.6105 3.38028C7.52076 3.36153 7.42727 3.37631 7.34768 3.42182L6.86956 3.69885C6.78995 3.7447 6.73011 3.81837 6.70155 3.90568C6.67299 3.993 6.67774 4.08779 6.71487 4.17182L7.1555 5.33198C7.18338 5.40643 7.18706 5.48779 7.16602 5.56446C7.14498 5.64113 7.10029 5.70921 7.03831 5.75901C6.92112 5.85276 6.80393 5.95166 6.69143 6.05057C6.632 6.10334 6.55735 6.13586 6.47824 6.14344C6.39912 6.15102 6.31965 6.13327 6.25128 6.09276L5.20315 5.44401C5.12663 5.39365 5.03432 5.37305 4.94364 5.38609C4.85297 5.39913 4.7702 5.44491 4.71097 5.51479L4.35987 5.93666C4.30089 6.00698 4.26974 6.09649 4.27234 6.18824C4.27493 6.27999 4.31108 6.3676 4.37393 6.43448L5.1844 7.36916C5.2371 7.43014 5.26875 7.50648 5.27466 7.58686C5.28057 7.66724 5.26043 7.74738 5.21722 7.81541C5.13753 7.94041 5.06253 8.07182 4.99222 8.20963C4.95399 8.2801 4.89446 8.33668 4.82214 8.37128C4.74982 8.40588 4.66842 8.41674 4.58956 8.40229L3.37597 8.16791C3.28656 8.14611 3.19225 8.15794 3.111 8.20116C3.02975 8.24437 2.96723 8.31596 2.93534 8.40229L2.74784 8.91791C2.71638 9.00438 2.71759 9.09937 2.75126 9.18501C2.78493 9.27064 2.84873 9.34102 2.93065 9.38291L4.01159 9.98432C4.08138 10.0231 4.13683 10.0834 4.16975 10.1561C4.20267 10.2289 4.21131 10.3103 4.1944 10.3884C4.16628 10.5384 4.13815 10.6842 4.11472 10.8342C4.10346 10.9133 4.06748 10.9868 4.01191 11.0442C3.95634 11.1016 3.88404 11.14 3.80534 11.1539L2.58284 11.3507C2.49187 11.3619 2.40803 11.4057 2.34685 11.474C2.28566 11.5422 2.25127 11.6303 2.25003 11.722V12.2714C2.24889 12.3637 2.28246 12.4531 2.3441 12.5218C2.40573 12.5906 2.49094 12.6337 2.58284 12.6426L3.80534 12.8395C3.88428 12.8528 3.95689 12.891 4.01255 12.9485C4.06822 13.006 4.10402 13.0798 4.11472 13.1592C4.13815 13.3092 4.16159 13.4596 4.1944 13.6049C4.21027 13.683 4.20114 13.764 4.16832 13.8365C4.1355 13.9091 4.08066 13.9694 4.01159 14.009L2.92925 14.6109C2.84732 14.6528 2.78352 14.7232 2.74985 14.8088C2.71619 14.8944 2.71497 14.9894 2.74643 15.0759L2.93393 15.5915C2.9653 15.6782 3.02774 15.7502 3.10914 15.7935C3.19055 15.8368 3.28513 15.8483 3.37456 15.8259L4.58815 15.5915C4.66705 15.5762 4.74877 15.5867 4.82127 15.6214C4.89376 15.6561 4.9532 15.7131 4.99081 15.7842C5.06112 15.9154 5.13612 16.0468 5.21581 16.1784C5.25788 16.2468 5.27735 16.3267 5.27146 16.4068C5.26557 16.4869 5.23462 16.5631 5.183 16.6246L4.37253 17.5603C4.30967 17.6271 4.27352 17.7147 4.27093 17.8065C4.26834 17.8982 4.29948 17.9877 4.35847 18.0581L4.70956 18.4799C4.76807 18.5509 4.85093 18.5975 4.94196 18.6106C5.03298 18.6236 5.12562 18.6023 5.20175 18.5507L6.26534 17.9118C6.33371 17.8713 6.41319 17.8536 6.4923 17.8611C6.57141 17.8687 6.64607 17.9012 6.7055 17.954C6.818 18.0529 6.93518 18.1514 7.05237 18.2456C7.1147 18.2951 7.15966 18.3632 7.18073 18.4399C7.20179 18.5167 7.19788 18.5982 7.16956 18.6726L6.72893 19.8328C6.69204 19.917 6.68741 20.0119 6.71593 20.0994C6.74446 20.1869 6.80414 20.2608 6.88362 20.3071L7.36175 20.5842C7.44154 20.6295 7.53518 20.644 7.62494 20.6249C7.71469 20.6058 7.79433 20.5544 7.84878 20.4806L8.63581 19.5131C8.73425 19.3912 8.89362 19.3396 9.02018 19.3912C9.17956 19.4568 9.28737 19.4943 9.48425 19.5604C9.56001 19.5854 9.62582 19.634 9.6721 19.699C9.71838 19.764 9.74272 19.842 9.74159 19.9218L9.72284 21.1617C9.71732 21.2539 9.74573 21.3449 9.80273 21.4176C9.85972 21.4903 9.94135 21.5397 10.0322 21.5564L10.5755 21.6501C10.6664 21.6659 10.76 21.6478 10.8386 21.5994C10.9171 21.5509 10.9753 21.4755 11.0021 21.3871L11.4052 20.2153C11.431 20.1396 11.4804 20.0741 11.5461 20.0285C11.6118 19.9829 11.6904 19.9595 11.7703 19.9617H12.2297C12.3096 19.96 12.3879 19.9836 12.4535 20.0292C12.5191 20.0747 12.5686 20.1399 12.5949 20.2153L12.998 21.3871C13.0248 21.4755 13.0829 21.5509 13.1615 21.5994C13.2401 21.6478 13.3336 21.6659 13.4246 21.6501L13.9678 21.5564C14.0587 21.5397 14.1403 21.4903 14.1973 21.4176C14.2543 21.3449 14.2827 21.2539 14.2772 21.1617L14.2585 19.9218C14.2573 19.842 14.2817 19.764 14.328 19.699C14.3742 19.634 14.44 19.5854 14.5158 19.5604C14.7127 19.4943 14.8439 19.4428 14.9658 19.3959C15.0877 19.349 15.2377 19.349 15.3549 19.4943L16.1517 20.4759C16.2065 20.55 16.2865 20.6014 16.3767 20.6202C16.4669 20.6391 16.5608 20.6241 16.6407 20.5781L17.1188 20.301C17.1988 20.2552 17.259 20.1813 17.2875 20.0937C17.3161 20.006 17.3111 19.9108 17.2735 19.8267L16.8328 18.6665C16.805 18.592 16.8013 18.5106 16.8224 18.4338C16.8434 18.3571 16.8881 18.2889 16.95 18.239C17.0672 18.1453 17.1844 18.0468 17.2969 17.9479C17.3563 17.8951 17.431 17.8626 17.5101 17.855C17.5892 17.8475 17.6687 17.8652 17.7371 17.9057L18.7969 18.5465C18.8734 18.5969 18.9657 18.6175 19.0564 18.6044C19.1471 18.5914 19.2299 18.5456 19.2891 18.4757L19.6402 18.0539C19.6992 17.9835 19.7303 17.894 19.7277 17.8023C19.7251 17.7105 19.689 17.6229 19.6261 17.556L18.8157 16.6214C18.763 16.5604 18.7313 16.484 18.7254 16.4037C18.7195 16.3233 18.7396 16.2431 18.7828 16.1751C18.8625 16.0485 18.9375 15.9171 19.0078 15.7809C19.0461 15.7104 19.1056 15.6538 19.1779 15.6192C19.2502 15.5846 19.3316 15.5738 19.4105 15.5882L20.6241 15.8226C20.7135 15.8444 20.8078 15.8326 20.8891 15.7894C20.9703 15.7461 21.0328 15.6746 21.0647 15.5882L21.2522 15.0726C21.2837 14.9861 21.2825 14.8911 21.2488 14.8055C21.2151 14.7199 21.1513 14.6495 21.0694 14.6076L19.9871 14.0067C19.9173 13.9678 19.8618 13.9076 19.8289 13.8348C19.796 13.7621 19.7873 13.6807 19.8042 13.6026C19.8324 13.4526 19.8605 13.3068 19.8839 13.1568C19.8952 13.0777 19.9312 13.0042 19.9867 12.9468C20.0423 12.8893 20.1146 12.851 20.1933 12.8371L21.4158 12.6403C21.5068 12.629 21.5906 12.5853 21.6518 12.517C21.713 12.4488 21.7474 12.3607 21.7486 12.269V11.7187C21.7435 11.6279 21.7065 11.5417 21.6442 11.4755C21.5819 11.4092 21.4982 11.367 21.4078 11.3564ZM12 5.24994C13.4972 5.24931 14.952 5.74707 16.135 6.66473C17.318 7.5824 18.1618 8.86775 18.5335 10.3181C18.5611 10.4287 18.5632 10.5441 18.5395 10.6556C18.5158 10.7672 18.4671 10.8718 18.3969 10.9617C18.3267 11.0515 18.237 11.1242 18.1345 11.1741C18.032 11.2241 17.9195 11.25 17.8055 11.2499H12.8724C12.7399 11.25 12.6097 11.2149 12.4952 11.1483C12.3807 11.0817 12.2858 10.9859 12.2203 10.8707L9.77815 6.57182C9.72129 6.47188 9.68816 6.3602 9.68134 6.24541C9.67452 6.13062 9.69418 6.0158 9.73881 5.90983C9.78343 5.80385 9.85183 5.70956 9.93872 5.63423C10.0256 5.55891 10.1286 5.50457 10.2399 5.47541C10.8144 5.32468 11.406 5.24889 12 5.24994ZM5.25003 11.9999C5.24919 11.0961 5.42986 10.2014 5.78133 9.3687C6.1328 8.53604 6.64792 7.78244 7.29612 7.1526C7.37797 7.07157 7.47739 7.01048 7.58665 6.97406C7.69592 6.93765 7.81211 6.92689 7.9262 6.94262C8.0403 6.95835 8.14924 7.00015 8.24458 7.06477C8.33992 7.12939 8.41909 7.2151 8.47597 7.31526L10.9247 11.6249C10.9894 11.7382 11.0234 11.8664 11.0234 11.9969C11.0234 12.1274 10.9894 12.2556 10.9247 12.3689L8.45581 16.6673C8.39849 16.7672 8.31895 16.8525 8.22335 16.9167C8.12775 16.9808 8.01866 17.0221 7.90453 17.0374C7.7904 17.0526 7.67429 17.0413 7.56521 17.0045C7.45612 16.9676 7.35699 16.9061 7.2755 16.8248C6.63361 16.196 6.1238 15.4452 5.77598 14.6167C5.42817 13.7882 5.24935 12.8985 5.25003 11.9999ZM12 18.7499C11.3957 18.7515 10.7938 18.6735 10.2099 18.5179C10.0987 18.4884 9.99576 18.4336 9.9091 18.3579C9.82245 18.2822 9.75437 18.1876 9.71014 18.0814C9.66591 17.9751 9.64671 17.8602 9.65404 17.7453C9.66136 17.6305 9.69501 17.5189 9.75237 17.4192L12.2171 13.1278C12.283 13.0136 12.3778 12.9188 12.4921 12.853C12.6063 12.7871 12.7358 12.7526 12.8677 12.7528H17.8078C17.9218 12.7528 18.0343 12.7788 18.1367 12.8287C18.2391 12.8787 18.3288 12.9514 18.3989 13.0412C18.469 13.1311 18.5178 13.2357 18.5414 13.3472C18.5651 13.4587 18.563 13.5741 18.5353 13.6846C18.1629 15.1347 17.3185 16.4195 16.1353 17.3366C14.952 18.2538 13.4971 18.751 12 18.7499Z"/>
</mask>
<path d="M21.4078 11.3564L20.1853 11.1595C20.1064 11.1462 20.0338 11.108 19.9781 11.0505C19.9225 10.9929 19.8867 10.9191 19.876 10.8398C19.8525 10.6898 19.8291 10.5393 19.7963 10.394C19.7804 10.316 19.7895 10.235 19.8224 10.1624C19.8552 10.0899 19.91 10.0295 19.9791 9.98994L21.0614 9.38901C21.1434 9.34712 21.2072 9.27673 21.2408 9.1911C21.2745 9.10546 21.2757 9.01048 21.2442 8.92401L21.0567 8.40838C21.0254 8.32168 20.9629 8.2497 20.8815 8.2064C20.8001 8.16309 20.7056 8.15155 20.6161 8.17401L19.4025 8.40838C19.3236 8.42365 19.2419 8.41318 19.1694 8.37849C19.0969 8.3438 19.0375 8.28675 18.9999 8.21573C18.9296 8.08448 18.8546 7.95307 18.7749 7.82151C18.7328 7.7531 18.7133 7.67318 18.7192 7.59308C18.7251 7.51299 18.7561 7.43678 18.8077 7.37526L19.6182 6.44057C19.681 6.37369 19.7172 6.28608 19.7198 6.19433C19.7223 6.10259 19.6912 6.01308 19.6322 5.94276L19.2811 5.52088C19.2226 5.44993 19.1397 5.40336 19.0487 5.39027C18.9577 5.37718 18.8651 5.39851 18.7889 5.4501L17.7253 6.08901C17.657 6.12952 17.5775 6.14727 17.4984 6.13969C17.4193 6.13211 17.3446 6.09959 17.2852 6.04682C17.1727 5.94791 17.0555 5.84948 16.9383 5.75526C16.876 5.70573 16.831 5.63766 16.81 5.56089C16.7889 5.48411 16.7928 5.40263 16.8211 5.32823L17.2617 4.16807C17.2992 4.0839 17.3044 3.98887 17.2763 3.90112C17.2482 3.81336 17.1888 3.73902 17.1094 3.69229L16.6313 3.41526C16.5515 3.36995 16.4578 3.35546 16.3681 3.37456C16.2783 3.39365 16.1987 3.44499 16.1442 3.51885L15.3642 4.49573C15.3207 4.55721 15.2577 4.60221 15.1854 4.62347C15.1131 4.64473 15.0357 4.64101 14.9658 4.61291C14.9658 4.61291 14.7033 4.5051 14.5064 4.43901C14.4309 4.41384 14.3654 4.3653 14.3193 4.30042C14.2732 4.23553 14.2489 4.15766 14.25 4.07807L14.2688 2.83823C14.2743 2.74601 14.2459 2.65496 14.1889 2.58225C14.1319 2.50954 14.0503 2.4602 13.9594 2.44354L13.4161 2.34979C13.3252 2.33404 13.2316 2.35208 13.1531 2.40051C13.0745 2.44895 13.0163 2.52443 12.9896 2.61276L12.5864 3.78698C12.5606 3.86266 12.5112 3.9281 12.4455 3.97372C12.3798 4.01934 12.3012 4.04277 12.2213 4.04057H11.7619C11.6821 4.04226 11.6037 4.01863 11.5381 3.97308C11.4725 3.92752 11.4231 3.86238 11.3967 3.78698L10.9936 2.61276C10.9668 2.52443 10.9087 2.44895 10.8301 2.40051C10.7516 2.35208 10.658 2.33404 10.5671 2.34979L10.0238 2.44354C9.93291 2.4602 9.85128 2.50954 9.79429 2.58225C9.7373 2.65496 9.70888 2.74601 9.7144 2.83823L9.73315 4.07807C9.73429 4.15785 9.70994 4.23592 9.66366 4.30091C9.61738 4.36591 9.55157 4.41445 9.47581 4.43948C9.368 4.48166 9.13362 4.57119 9.02112 4.61338C8.88987 4.66026 8.73518 4.62276 8.60862 4.47698L7.83472 3.52354C7.78 3.44998 7.70024 3.39902 7.6105 3.38028C7.52076 3.36153 7.42727 3.37631 7.34768 3.42182L6.86956 3.69885C6.78995 3.7447 6.73011 3.81837 6.70155 3.90568C6.67299 3.993 6.67774 4.08779 6.71487 4.17182L7.1555 5.33198C7.18338 5.40643 7.18706 5.48779 7.16602 5.56446C7.14498 5.64113 7.10029 5.70921 7.03831 5.75901C6.92112 5.85276 6.80393 5.95166 6.69143 6.05057C6.632 6.10334 6.55735 6.13586 6.47824 6.14344C6.39912 6.15102 6.31965 6.13327 6.25128 6.09276L5.20315 5.44401C5.12663 5.39365 5.03432 5.37305 4.94364 5.38609C4.85297 5.39913 4.7702 5.44491 4.71097 5.51479L4.35987 5.93666C4.30089 6.00698 4.26974 6.09649 4.27234 6.18824C4.27493 6.27999 4.31108 6.3676 4.37393 6.43448L5.1844 7.36916C5.2371 7.43014 5.26875 7.50648 5.27466 7.58686C5.28057 7.66724 5.26043 7.74738 5.21722 7.81541C5.13753 7.94041 5.06253 8.07182 4.99222 8.20963C4.95399 8.2801 4.89446 8.33668 4.82214 8.37128C4.74982 8.40588 4.66842 8.41674 4.58956 8.40229L3.37597 8.16791C3.28656 8.14611 3.19225 8.15794 3.111 8.20116C3.02975 8.24437 2.96723 8.31596 2.93534 8.40229L2.74784 8.91791C2.71638 9.00438 2.71759 9.09937 2.75126 9.18501C2.78493 9.27064 2.84873 9.34102 2.93065 9.38291L4.01159 9.98432C4.08138 10.0231 4.13683 10.0834 4.16975 10.1561C4.20267 10.2289 4.21131 10.3103 4.1944 10.3884C4.16628 10.5384 4.13815 10.6842 4.11472 10.8342C4.10346 10.9133 4.06748 10.9868 4.01191 11.0442C3.95634 11.1016 3.88404 11.14 3.80534 11.1539L2.58284 11.3507C2.49187 11.3619 2.40803 11.4057 2.34685 11.474C2.28566 11.5422 2.25127 11.6303 2.25003 11.722V12.2714C2.24889 12.3637 2.28246 12.4531 2.3441 12.5218C2.40573 12.5906 2.49094 12.6337 2.58284 12.6426L3.80534 12.8395C3.88428 12.8528 3.95689 12.891 4.01255 12.9485C4.06822 13.006 4.10402 13.0798 4.11472 13.1592C4.13815 13.3092 4.16159 13.4596 4.1944 13.6049C4.21027 13.683 4.20114 13.764 4.16832 13.8365C4.1355 13.9091 4.08066 13.9694 4.01159 14.009L2.92925 14.6109C2.84732 14.6528 2.78352 14.7232 2.74985 14.8088C2.71619 14.8944 2.71497 14.9894 2.74643 15.0759L2.93393 15.5915C2.9653 15.6782 3.02774 15.7502 3.10914 15.7935C3.19055 15.8368 3.28513 15.8483 3.37456 15.8259L4.58815 15.5915C4.66705 15.5762 4.74877 15.5867 4.82127 15.6214C4.89376 15.6561 4.9532 15.7131 4.99081 15.7842C5.06112 15.9154 5.13612 16.0468 5.21581 16.1784C5.25788 16.2468 5.27735 16.3267 5.27146 16.4068C5.26557 16.4869 5.23462 16.5631 5.183 16.6246L4.37253 17.5603C4.30967 17.6271 4.27352 17.7147 4.27093 17.8065C4.26834 17.8982 4.29948 17.9877 4.35847 18.0581L4.70956 18.4799C4.76807 18.5509 4.85093 18.5975 4.94196 18.6106C5.03298 18.6236 5.12562 18.6023 5.20175 18.5507L6.26534 17.9118C6.33371 17.8713 6.41319 17.8536 6.4923 17.8611C6.57141 17.8687 6.64607 17.9012 6.7055 17.954C6.818 18.0529 6.93518 18.1514 7.05237 18.2456C7.1147 18.2951 7.15966 18.3632 7.18073 18.4399C7.20179 18.5167 7.19788 18.5982 7.16956 18.6726L6.72893 19.8328C6.69204 19.917 6.68741 20.0119 6.71593 20.0994C6.74446 20.1869 6.80414 20.2608 6.88362 20.3071L7.36175 20.5842C7.44154 20.6295 7.53518 20.644 7.62494 20.6249C7.71469 20.6058 7.79433 20.5544 7.84878 20.4806L8.63581 19.5131C8.73425 19.3912 8.89362 19.3396 9.02018 19.3912C9.17956 19.4568 9.28737 19.4943 9.48425 19.5604C9.56001 19.5854 9.62582 19.634 9.6721 19.699C9.71838 19.764 9.74272 19.842 9.74159 19.9218L9.72284 21.1617C9.71732 21.2539 9.74573 21.3449 9.80273 21.4176C9.85972 21.4903 9.94135 21.5397 10.0322 21.5564L10.5755 21.6501C10.6664 21.6659 10.76 21.6478 10.8386 21.5994C10.9171 21.5509 10.9753 21.4755 11.0021 21.3871L11.4052 20.2153C11.431 20.1396 11.4804 20.0741 11.5461 20.0285C11.6118 19.9829 11.6904 19.9595 11.7703 19.9617H12.2297C12.3096 19.96 12.3879 19.9836 12.4535 20.0292C12.5191 20.0747 12.5686 20.1399 12.5949 20.2153L12.998 21.3871C13.0248 21.4755 13.0829 21.5509 13.1615 21.5994C13.2401 21.6478 13.3336 21.6659 13.4246 21.6501L13.9678 21.5564C14.0587 21.5397 14.1403 21.4903 14.1973 21.4176C14.2543 21.3449 14.2827 21.2539 14.2772 21.1617L14.2585 19.9218C14.2573 19.842 14.2817 19.764 14.328 19.699C14.3742 19.634 14.44 19.5854 14.5158 19.5604C14.7127 19.4943 14.8439 19.4428 14.9658 19.3959C15.0877 19.349 15.2377 19.349 15.3549 19.4943L16.1517 20.4759C16.2065 20.55 16.2865 20.6014 16.3767 20.6202C16.4669 20.6391 16.5608 20.6241 16.6407 20.5781L17.1188 20.301C17.1988 20.2552 17.259 20.1813 17.2875 20.0937C17.3161 20.006 17.3111 19.9108 17.2735 19.8267L16.8328 18.6665C16.805 18.592 16.8013 18.5106 16.8224 18.4338C16.8434 18.3571 16.8881 18.2889 16.95 18.239C17.0672 18.1453 17.1844 18.0468 17.2969 17.9479C17.3563 17.8951 17.431 17.8626 17.5101 17.855C17.5892 17.8475 17.6687 17.8652 17.7371 17.9057L18.7969 18.5465C18.8734 18.5969 18.9657 18.6175 19.0564 18.6044C19.1471 18.5914 19.2299 18.5456 19.2891 18.4757L19.6402 18.0539C19.6992 17.9835 19.7303 17.894 19.7277 17.8023C19.7251 17.7105 19.689 17.6229 19.6261 17.556L18.8157 16.6214C18.763 16.5604 18.7313 16.484 18.7254 16.4037C18.7195 16.3233 18.7396 16.2431 18.7828 16.1751C18.8625 16.0485 18.9375 15.9171 19.0078 15.7809C19.0461 15.7104 19.1056 15.6538 19.1779 15.6192C19.2502 15.5846 19.3316 15.5738 19.4105 15.5882L20.6241 15.8226C20.7135 15.8444 20.8078 15.8326 20.8891 15.7894C20.9703 15.7461 21.0328 15.6746 21.0647 15.5882L21.2522 15.0726C21.2837 14.9861 21.2825 14.8911 21.2488 14.8055C21.2151 14.7199 21.1513 14.6495 21.0694 14.6076L19.9871 14.0067C19.9173 13.9678 19.8618 13.9076 19.8289 13.8348C19.796 13.7621 19.7873 13.6807 19.8042 13.6026C19.8324 13.4526 19.8605 13.3068 19.8839 13.1568C19.8952 13.0777 19.9312 13.0042 19.9867 12.9468C20.0423 12.8893 20.1146 12.851 20.1933 12.8371L21.4158 12.6403C21.5068 12.629 21.5906 12.5853 21.6518 12.517C21.713 12.4488 21.7474 12.3607 21.7486 12.269V11.7187C21.7435 11.6279 21.7065 11.5417 21.6442 11.4755C21.5819 11.4092 21.4982 11.367 21.4078 11.3564ZM12 5.24994C13.4972 5.24931 14.952 5.74707 16.135 6.66473C17.318 7.5824 18.1618 8.86775 18.5335 10.3181C18.5611 10.4287 18.5632 10.5441 18.5395 10.6556C18.5158 10.7672 18.4671 10.8718 18.3969 10.9617C18.3267 11.0515 18.237 11.1242 18.1345 11.1741C18.032 11.2241 17.9195 11.25 17.8055 11.2499H12.8724C12.7399 11.25 12.6097 11.2149 12.4952 11.1483C12.3807 11.0817 12.2858 10.9859 12.2203 10.8707L9.77815 6.57182C9.72129 6.47188 9.68816 6.3602 9.68134 6.24541C9.67452 6.13062 9.69418 6.0158 9.73881 5.90983C9.78343 5.80385 9.85183 5.70956 9.93872 5.63423C10.0256 5.55891 10.1286 5.50457 10.2399 5.47541C10.8144 5.32468 11.406 5.24889 12 5.24994ZM5.25003 11.9999C5.24919 11.0961 5.42986 10.2014 5.78133 9.3687C6.1328 8.53604 6.64792 7.78244 7.29612 7.1526C7.37797 7.07157 7.47739 7.01048 7.58665 6.97406C7.69592 6.93765 7.81211 6.92689 7.9262 6.94262C8.0403 6.95835 8.14924 7.00015 8.24458 7.06477C8.33992 7.12939 8.41909 7.2151 8.47597 7.31526L10.9247 11.6249C10.9894 11.7382 11.0234 11.8664 11.0234 11.9969C11.0234 12.1274 10.9894 12.2556 10.9247 12.3689L8.45581 16.6673C8.39849 16.7672 8.31895 16.8525 8.22335 16.9167C8.12775 16.9808 8.01866 17.0221 7.90453 17.0374C7.7904 17.0526 7.67429 17.0413 7.56521 17.0045C7.45612 16.9676 7.35699 16.9061 7.2755 16.8248C6.63361 16.196 6.1238 15.4452 5.77598 14.6167C5.42817 13.7882 5.24935 12.8985 5.25003 11.9999ZM12 18.7499C11.3957 18.7515 10.7938 18.6735 10.2099 18.5179C10.0987 18.4884 9.99576 18.4336 9.9091 18.3579C9.82245 18.2822 9.75437 18.1876 9.71014 18.0814C9.66591 17.9751 9.64671 17.8602 9.65404 17.7453C9.66136 17.6305 9.69501 17.5189 9.75237 17.4192L12.2171 13.1278C12.283 13.0136 12.3778 12.9188 12.4921 12.853C12.6063 12.7871 12.7358 12.7526 12.8677 12.7528H17.8078C17.9218 12.7528 18.0343 12.7788 18.1367 12.8287C18.2391 12.8787 18.3288 12.9514 18.3989 13.0412C18.469 13.1311 18.5178 13.2357 18.5414 13.3472C18.5651 13.4587 18.563 13.5741 18.5353 13.6846C18.1629 15.1347 17.3185 16.4195 16.1353 17.3366C14.952 18.2538 13.4971 18.751 12 18.7499Z" fill="#222327" stroke="#2E3D33" stroke-width="2" mask="url(#path-1-inside-1_0_78)"/>
</svg>
