<svg width="20" height="20" viewBox="0 0 20 20" fill="none" xmlns="http://www.w3.org/2000/svg">
<path d="M14.3965 4.46973L13.9814 4.39844H13.9795C13.9788 4.39832 13.9776 4.39764 13.9766 4.39746C13.9742 4.39707 13.9708 4.39714 13.9668 4.39648C13.9584 4.39509 13.9461 4.39309 13.9307 4.39062C13.8995 4.38565 13.8543 4.37844 13.7979 4.37012C13.6848 4.35346 13.5247 4.33161 13.334 4.30957C12.9541 4.26566 12.4429 4.2207 11.9375 4.2207C10.8374 4.22078 9.87295 4.55611 9.18262 5.24707C8.49169 5.93876 8.13281 6.92888 8.13281 8.125V9.55273H5.91016V13.083H8.13281V18.0879C4.47584 17.2412 1.75 13.9662 1.75 10.0527C1.75 5.49685 5.44411 1.80273 10 1.80273C14.5559 1.80273 18.25 5.49685 18.25 10.0527C18.25 13.9674 15.5241 17.2425 11.8672 18.0889V13.083H13.835L13.9004 12.6582L14.2871 10.1289L14.376 9.55273H11.8672V8.41211C11.8672 8.13843 11.9349 7.92987 12.0508 7.7959C12.155 7.67543 12.3584 7.54492 12.793 7.54492H14.3965V4.46973Z" fill="black" stroke="#35363D"/>
</svg>
