<svg width="24" height="24" viewBox="0 0 24 24" fill="none" xmlns="http://www.w3.org/2000/svg">
<path d="M16.3031 14.3317L19.9955 16.922C20.1043 16.9702 20.2234 16.9905 20.342 16.9812C20.4607 16.9718 20.5751 16.9331 20.6749 16.8685C20.7747 16.8038 20.8567 16.7154 20.9135 16.6111C20.9703 16.5069 21 16.3901 21 16.2715V7.69526C21 7.57665 20.9703 7.45992 20.9135 7.35567C20.8567 7.25143 20.7747 7.16297 20.6749 7.09835C20.5751 7.03372 20.4607 6.99497 20.342 6.98562C20.2234 6.97626 20.1043 6.9966 19.9955 7.04479L16.3031 9.63511C16.2095 9.7008 16.1331 9.78796 16.0803 9.88924C16.0276 9.99052 16 10.103 16 10.2171V13.7497C16 13.8638 16.0276 13.9763 16.0803 14.0776C16.1331 14.1788 16.2095 14.266 16.3031 14.3317Z" stroke="#222327" stroke-linecap="round" stroke-linejoin="round"/>
<path d="M11.8333 17.9834H4.16667C3.59254 17.9815 3.0424 17.7241 2.63642 17.2674C2.23045 16.8107 2.00165 16.1918 2 15.5459V8.4209C2.00165 7.775 2.23045 7.15609 2.63642 6.69938C3.0424 6.24266 3.59254 5.98525 4.16667 5.9834H11.8533C12.4221 5.98538 12.9671 6.24045 13.3693 6.69292C13.7715 7.14539 13.9982 7.75851 14 8.3984V15.5459C13.9984 16.1918 13.7695 16.8107 13.3636 17.2674C12.9576 17.7241 12.4075 17.9815 11.8333 17.9834Z" stroke="#222327" stroke-miterlimit="10"/>
</svg>
