<svg width="20" height="20" viewBox="0 0 20 20" fill="none" xmlns="http://www.w3.org/2000/svg">
<g clip-path="url(#clip0_0_76)">
<path d="M10 0.5C10.932 0.5 11.6875 1.25552 11.6875 2.1875C11.6875 3.11948 10.932 3.875 10 3.875C9.06802 3.875 8.3125 3.11948 8.3125 2.1875C8.3125 1.25552 9.06802 0.5 10 0.5Z" fill="#3C5043" stroke="#3C5043"/>
<path d="M17.0703 4.99995H2.92969C2.64997 4.99995 2.3817 5.11107 2.18391 5.30886C1.98612 5.50665 1.875 5.77492 1.875 6.05464C1.875 6.33436 1.98612 6.60262 2.18391 6.80042C2.3817 6.99821 2.64997 7.10933 2.92969 7.10933H6.90938C7.1793 7.10933 7.49531 7.23003 7.67422 7.69526C7.8832 8.2355 7.78086 9.27886 7.65195 10.0871L7.4832 11.0421C7.48352 11.0446 7.48326 11.0471 7.48245 11.0495C7.48163 11.0519 7.48029 11.054 7.47852 11.0558L6.12695 18.7437C6.07794 19.0228 6.14145 19.3099 6.30361 19.5422C6.46576 19.7746 6.71334 19.9333 6.99219 19.9835C7.13005 20.0079 7.27138 20.0047 7.40797 19.974C7.54457 19.9433 7.67371 19.8858 7.78789 19.8048C7.90208 19.7238 7.99904 19.6209 8.07313 19.5021C8.14723 19.3833 8.19699 19.251 8.21953 19.1128L9.15352 13.7691C9.15352 13.7691 9.45312 12.5 10 12.5C10.5559 12.5 10.8492 13.7691 10.8492 13.7691L11.7832 19.1175C11.8058 19.2569 11.8559 19.3904 11.9306 19.5102C12.0053 19.6301 12.1031 19.7338 12.2184 19.8155C12.3336 19.8971 12.4639 19.955 12.6017 19.9858C12.7395 20.0166 12.8821 20.0196 13.0211 19.9947C13.1601 19.9698 13.2927 19.9175 13.4113 19.8408C13.5299 19.7642 13.632 19.6646 13.7118 19.5481C13.7915 19.4316 13.8472 19.3003 13.8757 19.162C13.9042 19.0237 13.9049 18.8811 13.8777 18.7425L12.5258 11.0546C12.5261 11.0522 12.5258 11.0497 12.5251 11.0473C12.5243 11.045 12.5231 11.0428 12.5215 11.041L12.3523 10.0859C12.2234 9.27769 12.1211 8.23433 12.3301 7.69409C12.5082 7.23003 12.8344 7.10815 13.0832 7.10815H17.0703C17.35 7.10815 17.6183 6.99704 17.8161 6.79924C18.0139 6.60145 18.125 6.33319 18.125 6.05347C18.125 5.77375 18.0139 5.50548 17.8161 5.30769C17.6183 5.1099 17.35 4.99878 17.0703 4.99878V4.99995Z" fill="#3C5043"/>
</g>
<defs>
<clipPath id="clip0_0_76">
<rect width="20" height="20" fill="white"/>
</clipPath>
</defs>
</svg>
