<svg width="20" height="20" viewBox="0 0 20 20" fill="none" xmlns="http://www.w3.org/2000/svg">
<path d="M17.8125 5.5H17.8135C17.9697 5.49995 18.1242 5.53421 18.2656 5.60059C18.407 5.66701 18.5321 5.7645 18.6318 5.88477C18.7315 6.00501 18.8037 6.14567 18.8428 6.29688C18.8818 6.44818 18.8864 6.60622 18.8574 6.75977C18.8284 6.91336 18.7664 7.05891 18.6748 7.18555C18.5833 7.31204 18.4647 7.41661 18.3281 7.49219C18.1913 7.56779 18.0388 7.61286 17.8828 7.62305C17.7271 7.63318 17.571 7.60873 17.4258 7.55176L17.1201 7.43164L13.3691 11.1826L13.4893 11.4873C13.5525 11.6484 13.575 11.8231 13.5557 11.9951C13.5363 12.167 13.4753 12.3317 13.3779 12.4746C13.2805 12.6174 13.1499 12.7346 12.9971 12.8154C12.8441 12.8963 12.6731 12.9385 12.5 12.9385C12.3271 12.9384 12.1568 12.8962 12.0039 12.8154C11.8509 12.7345 11.7195 12.6176 11.6221 12.4746C11.5247 12.3317 11.4637 12.167 11.4443 11.9951C11.425 11.8231 11.4484 11.6484 11.5117 11.4873L11.6309 11.1826L8.81738 8.36914L8.5127 8.48926C8.26394 8.58718 7.98705 8.58712 7.73828 8.48926L7.43359 8.36914L7.20117 8.60059L3.05664 12.7451L3.17676 13.0498C3.26587 13.277 3.27434 13.5282 3.2002 13.7607C3.12604 13.9933 2.97375 14.1935 2.76953 14.3271C2.56533 14.4608 2.32088 14.5202 2.07812 14.4951C1.83556 14.47 1.60903 14.3618 1.43652 14.1895C1.26392 14.0169 1.15593 13.7897 1.13086 13.5469C1.10579 13.3041 1.16514 13.0597 1.29883 12.8555C1.43242 12.6516 1.63207 12.4999 1.86426 12.4258C2.09667 12.3517 2.34807 12.3593 2.5752 12.4482L2.87988 12.5684L7.25586 8.19238L7.13672 7.8877C7.07343 7.7266 7.05 7.55188 7.06934 7.37988C7.08872 7.20802 7.14967 7.04331 7.24707 6.90039C7.34454 6.75738 7.4759 6.64045 7.62891 6.55957C7.78179 6.47878 7.95208 6.43657 8.125 6.43652C8.29808 6.43652 8.46906 6.47868 8.62207 6.55957C8.77492 6.6404 8.90551 6.75755 9.00293 6.90039C9.10032 7.04329 9.16127 7.20805 9.18066 7.37988C9.2 7.55188 9.17755 7.7266 9.11426 7.8877L8.99414 8.19238L11.5762 10.7744L11.8086 11.0059L12.1133 10.8857C12.362 10.7879 12.6389 10.7878 12.8877 10.8857L13.1924 11.0059L16.9434 7.25488L16.8242 6.9502C16.7611 6.78915 16.7384 6.61525 16.7578 6.44336C16.7772 6.27146 16.8381 6.10679 16.9355 5.96387C17.033 5.82103 17.1636 5.70387 17.3164 5.62305C17.4692 5.54226 17.6397 5.50011 17.8125 5.5Z" fill="#222327" stroke="#9A9AA7"/>
</svg>