<svg width="33" height="33" viewBox="0 0 33 33" fill="none" xmlns="http://www.w3.org/2000/svg">
<path d="M22.7461 4.8125C26.2607 4.8125 29.1816 7.74931 29.2188 11.3916C29.2517 14.6986 28.0887 17.7725 25.5967 20.8105C24.4318 22.2298 22.2881 24.5441 17.2734 27.9482H17.2725C17.0447 28.1035 16.7757 28.1861 16.5 28.1865C16.2243 28.1861 15.9553 28.1036 15.7275 27.9482L15.7256 27.9473L14.8184 27.3213C11.0292 24.6652 9.05781 22.7211 7.88867 21.3838L7.40234 20.8096C4.90934 17.7712 3.7484 14.6979 3.78125 11.3916C3.81819 7.74983 6.73813 4.81251 10.2529 4.8125C12.8124 4.8125 14.6067 6.25089 15.6865 7.50684L15.6885 7.50879C15.7893 7.62483 15.9139 7.71843 16.0537 7.78223C16.1936 7.84603 16.3462 7.87891 16.5 7.87891C16.6536 7.87887 16.8055 7.84595 16.9453 7.78223C17.0852 7.71842 17.2097 7.62489 17.3105 7.50879L17.3135 7.50586C18.3929 6.24922 20.1869 4.81267 22.7461 4.8125Z" fill="#4D6455" stroke="#F1F4F2" stroke-width="1.375"/>
</svg>
