<svg width="20" height="20" viewBox="0 0 20 20" fill="none" xmlns="http://www.w3.org/2000/svg">
<mask id="path-1-inside-1_0_53" fill="white">
<path d="M10.4303 18.5157L10.399 18.5106C10.4034 18.514 10.4085 18.5162 10.414 18.5171C10.4195 18.518 10.425 18.5175 10.4303 18.5157ZM17.5357 7.33518C17.5268 7.28805 17.5024 7.24525 17.4664 7.21357C17.4304 7.18189 17.3848 7.16314 17.3369 7.16032C17.289 7.15749 17.2416 7.17074 17.2021 7.19796C17.1626 7.22518 17.1333 7.26482 17.1189 7.31058C17.1051 7.35402 17.0779 7.39197 17.0412 7.41899C17.0045 7.44601 16.9602 7.46071 16.9146 7.46097H16.3103C16.2712 7.46101 16.2329 7.45033 16.1994 7.43011L15.3252 6.90589C15.2917 6.88566 15.2534 6.87499 15.2142 6.87503H13.8158C13.7732 6.87498 13.7316 6.88763 13.6963 6.91136L11.9717 8.06097C11.9419 8.08082 11.9175 8.10779 11.9007 8.13943C11.8839 8.17107 11.8753 8.2064 11.8756 8.24222V9.87268C11.8755 9.91176 11.8861 9.95011 11.9062 9.98363C11.9263 10.0171 11.9552 10.0445 11.9896 10.0629L14.251 11.2699C14.2849 11.2882 14.3134 11.3152 14.3335 11.3482C14.3535 11.3812 14.3644 11.4189 14.365 11.4574L14.3756 12.375C14.3762 12.413 14.3868 12.4502 14.4063 12.4827C14.4259 12.5153 14.4537 12.5422 14.4869 12.5606L15.3955 13.0633C15.4292 13.082 15.4572 13.1094 15.4768 13.1425C15.4964 13.1757 15.5067 13.2135 15.5068 13.252V15.1504C15.5068 15.1919 15.5188 15.2325 15.5413 15.2674C15.5638 15.3022 15.5959 15.3298 15.6337 15.3469C15.6715 15.364 15.7135 15.3698 15.7545 15.3636C15.7955 15.3574 15.8339 15.3396 15.865 15.3121C16.2314 14.9895 16.7568 14.5184 16.8267 14.4106C16.9424 14.2317 17.0508 14.0485 17.1521 13.861C17.3619 13.4725 17.5396 13.0675 17.6834 12.65C18.1787 11.216 17.7873 8.63831 17.5357 7.33518ZM11.1881 11.8282L8.79237 10.0313C8.76533 10.011 8.73243 10 8.69862 10H7.56191C7.54246 10 7.5232 9.99623 7.50524 9.98879C7.48727 9.98135 7.47095 9.97043 7.45722 9.95667L6.92128 9.42073C6.90676 9.40623 6.88952 9.39472 6.87055 9.38688C6.85159 9.37904 6.83126 9.37501 6.81073 9.37503H4.733C4.70372 9.37503 4.67509 9.36635 4.65075 9.35008C4.6264 9.33381 4.60742 9.31069 4.59622 9.28364C4.58501 9.25658 4.58208 9.22682 4.58779 9.1981C4.5935 9.16938 4.60761 9.143 4.62831 9.12229L4.95722 8.79339C4.97095 8.77962 4.98727 8.76871 5.00524 8.76127C5.0232 8.75382 5.04246 8.75001 5.06191 8.75003H6.32636C6.39446 8.75003 6.4607 8.72778 6.51499 8.68667C6.56929 8.64556 6.60867 8.58784 6.62714 8.52229L6.89628 7.56526C6.90202 7.5447 6.91191 7.52552 6.92535 7.50893C6.93879 7.49233 6.95548 7.47867 6.97441 7.46878L8.04745 6.91643C8.0716 6.90396 8.09184 6.88507 8.10597 6.86185C8.12009 6.83863 8.12755 6.81197 8.12753 6.78479V6.29651C8.12757 6.26622 8.13684 6.23665 8.15409 6.21175L8.72441 5.39065C8.74151 5.36598 8.76578 5.34717 8.79394 5.33675L9.59198 5.03714C9.62022 5.02656 9.64454 5.00761 9.66172 4.98283C9.67889 4.95805 9.68809 4.92862 9.68808 4.89847V4.45315C9.68808 4.42874 9.68205 4.4047 9.67053 4.38316C9.65902 4.36163 9.64237 4.34327 9.62206 4.32972L8.82206 3.79768C8.80008 3.78322 8.77468 3.77481 8.74841 3.77331C8.72214 3.7718 8.69594 3.77724 8.67245 3.78909L7.58339 4.33362C7.55848 4.34592 7.5306 4.35095 7.50296 4.34811C7.47532 4.34528 7.44904 4.33471 7.42714 4.31761L6.91073 3.9094C6.89311 3.89523 6.87896 3.87722 6.86936 3.85674C6.85976 3.83627 6.85497 3.81387 6.85535 3.79126C6.85572 3.76865 6.86126 3.74642 6.87154 3.72628C6.88181 3.70614 6.89656 3.68861 6.91464 3.67503L7.33417 3.36604C7.35316 3.35211 7.36855 3.33384 7.37904 3.31275C7.38953 3.29167 7.39483 3.26838 7.39448 3.24483C7.39414 3.22127 7.38816 3.19815 7.37706 3.17738C7.36596 3.1566 7.35005 3.13879 7.33066 3.12542L6.67714 2.66956C6.65452 2.65363 6.62787 2.64438 6.60025 2.64286C6.57262 2.64134 6.54512 2.64762 6.52089 2.66097C6.28456 2.79026 5.5912 3.17308 5.34511 3.34534C4.20647 4.14383 3.29013 5.21935 2.68261 6.47034C2.61151 6.61722 2.52362 6.76683 2.51503 6.92815C2.50644 7.08948 2.37987 7.44964 2.32714 7.59534C2.32003 7.61504 2.31718 7.63602 2.3188 7.6569C2.32042 7.67777 2.32645 7.69807 2.33651 7.71643L3.73066 10.2782C3.7432 10.3014 3.76183 10.3209 3.78456 10.3344L5.25136 11.2149C5.27039 11.2262 5.28662 11.2417 5.29886 11.2601C5.3111 11.2786 5.31903 11.2996 5.32206 11.3215L5.61581 13.452C5.61868 13.4724 5.62575 13.492 5.63658 13.5095C5.6474 13.5271 5.66174 13.5422 5.6787 13.5539L6.82323 14.3407C6.85639 14.3634 6.87948 14.3981 6.88769 14.4375L7.49472 17.3203C7.49812 17.3373 7.50461 17.3534 7.51386 17.368C7.57089 17.4602 7.79823 17.7977 8.07245 17.8477C8.04706 17.8547 8.02441 17.8707 7.99901 17.8782C8.06489 17.8897 8.13008 17.9049 8.19433 17.9235C8.27245 17.9446 8.35058 17.9625 8.4287 17.9793C8.55097 18.0035 8.56308 18.0223 8.62167 17.9137C8.6998 17.7684 8.78925 17.7184 8.85605 17.7004C8.88361 17.6941 8.90883 17.6801 8.9288 17.66C8.94877 17.64 8.96268 17.6147 8.96894 17.5871L9.3623 15.7637C9.37057 15.7255 9.39287 15.6917 9.4248 15.6692L11.1826 14.4231C11.203 14.4086 11.2197 14.3895 11.2312 14.3673C11.2427 14.345 11.2487 14.3204 11.2486 14.2953V11.9532C11.2489 11.9291 11.2435 11.9052 11.233 11.8836C11.2225 11.8619 11.2071 11.8429 11.1881 11.8282Z"/>
</mask>
<path d="M10.4303 18.5157L10.399 18.5106C10.4034 18.514 10.4085 18.5162 10.414 18.5171C10.4195 18.518 10.425 18.5175 10.4303 18.5157ZM17.5357 7.33518C17.5268 7.28805 17.5024 7.24525 17.4664 7.21357C17.4304 7.18189 17.3848 7.16314 17.3369 7.16032C17.289 7.15749 17.2416 7.17074 17.2021 7.19796C17.1626 7.22518 17.1333 7.26482 17.1189 7.31058C17.1051 7.35402 17.0779 7.39197 17.0412 7.41899C17.0045 7.44601 16.9602 7.46071 16.9146 7.46097H16.3103C16.2712 7.46101 16.2329 7.45033 16.1994 7.43011L15.3252 6.90589C15.2917 6.88566 15.2534 6.87499 15.2142 6.87503H13.8158C13.7732 6.87498 13.7316 6.88763 13.6963 6.91136L11.9717 8.06097C11.9419 8.08082 11.9175 8.10779 11.9007 8.13943C11.8839 8.17107 11.8753 8.2064 11.8756 8.24222V9.87268C11.8755 9.91176 11.8861 9.95011 11.9062 9.98363C11.9263 10.0171 11.9552 10.0445 11.9896 10.0629L14.251 11.2699C14.2849 11.2882 14.3134 11.3152 14.3335 11.3482C14.3535 11.3812 14.3644 11.4189 14.365 11.4574L14.3756 12.375C14.3762 12.413 14.3868 12.4502 14.4063 12.4827C14.4259 12.5153 14.4537 12.5422 14.4869 12.5606L15.3955 13.0633C15.4292 13.082 15.4572 13.1094 15.4768 13.1425C15.4964 13.1757 15.5067 13.2135 15.5068 13.252V15.1504C15.5068 15.1919 15.5188 15.2325 15.5413 15.2674C15.5638 15.3022 15.5959 15.3298 15.6337 15.3469C15.6715 15.364 15.7135 15.3698 15.7545 15.3636C15.7955 15.3574 15.8339 15.3396 15.865 15.3121C16.2314 14.9895 16.7568 14.5184 16.8267 14.4106C16.9424 14.2317 17.0508 14.0485 17.1521 13.861C17.3619 13.4725 17.5396 13.0675 17.6834 12.65C18.1787 11.216 17.7873 8.63831 17.5357 7.33518ZM11.1881 11.8282L8.79237 10.0313C8.76533 10.011 8.73243 10 8.69862 10H7.56191C7.54246 10 7.5232 9.99623 7.50524 9.98879C7.48727 9.98135 7.47095 9.97043 7.45722 9.95667L6.92128 9.42073C6.90676 9.40623 6.88952 9.39472 6.87055 9.38688C6.85159 9.37904 6.83126 9.37501 6.81073 9.37503H4.733C4.70372 9.37503 4.67509 9.36635 4.65075 9.35008C4.6264 9.33381 4.60742 9.31069 4.59622 9.28364C4.58501 9.25658 4.58208 9.22682 4.58779 9.1981C4.5935 9.16938 4.60761 9.143 4.62831 9.12229L4.95722 8.79339C4.97095 8.77962 4.98727 8.76871 5.00524 8.76127C5.0232 8.75382 5.04246 8.75001 5.06191 8.75003H6.32636C6.39446 8.75003 6.4607 8.72778 6.51499 8.68667C6.56929 8.64556 6.60867 8.58784 6.62714 8.52229L6.89628 7.56526C6.90202 7.5447 6.91191 7.52552 6.92535 7.50893C6.93879 7.49233 6.95548 7.47867 6.97441 7.46878L8.04745 6.91643C8.0716 6.90396 8.09184 6.88507 8.10597 6.86185C8.12009 6.83863 8.12755 6.81197 8.12753 6.78479V6.29651C8.12757 6.26622 8.13684 6.23665 8.15409 6.21175L8.72441 5.39065C8.74151 5.36598 8.76578 5.34717 8.79394 5.33675L9.59198 5.03714C9.62022 5.02656 9.64454 5.00761 9.66172 4.98283C9.67889 4.95805 9.68809 4.92862 9.68808 4.89847V4.45315C9.68808 4.42874 9.68205 4.4047 9.67053 4.38316C9.65902 4.36163 9.64237 4.34327 9.62206 4.32972L8.82206 3.79768C8.80008 3.78322 8.77468 3.77481 8.74841 3.77331C8.72214 3.7718 8.69594 3.77724 8.67245 3.78909L7.58339 4.33362C7.55848 4.34592 7.5306 4.35095 7.50296 4.34811C7.47532 4.34528 7.44904 4.33471 7.42714 4.31761L6.91073 3.9094C6.89311 3.89523 6.87896 3.87722 6.86936 3.85674C6.85976 3.83627 6.85497 3.81387 6.85535 3.79126C6.85572 3.76865 6.86126 3.74642 6.87154 3.72628C6.88181 3.70614 6.89656 3.68861 6.91464 3.67503L7.33417 3.36604C7.35316 3.35211 7.36855 3.33384 7.37904 3.31275C7.38953 3.29167 7.39483 3.26838 7.39448 3.24483C7.39414 3.22127 7.38816 3.19815 7.37706 3.17738C7.36596 3.1566 7.35005 3.13879 7.33066 3.12542L6.67714 2.66956C6.65452 2.65363 6.62787 2.64438 6.60025 2.64286C6.57262 2.64134 6.54512 2.64762 6.52089 2.66097C6.28456 2.79026 5.5912 3.17308 5.34511 3.34534C4.20647 4.14383 3.29013 5.21935 2.68261 6.47034C2.61151 6.61722 2.52362 6.76683 2.51503 6.92815C2.50644 7.08948 2.37987 7.44964 2.32714 7.59534C2.32003 7.61504 2.31718 7.63602 2.3188 7.6569C2.32042 7.67777 2.32645 7.69807 2.33651 7.71643L3.73066 10.2782C3.7432 10.3014 3.76183 10.3209 3.78456 10.3344L5.25136 11.2149C5.27039 11.2262 5.28662 11.2417 5.29886 11.2601C5.3111 11.2786 5.31903 11.2996 5.32206 11.3215L5.61581 13.452C5.61868 13.4724 5.62575 13.492 5.63658 13.5095C5.6474 13.5271 5.66174 13.5422 5.6787 13.5539L6.82323 14.3407C6.85639 14.3634 6.87948 14.3981 6.88769 14.4375L7.49472 17.3203C7.49812 17.3373 7.50461 17.3534 7.51386 17.368C7.57089 17.4602 7.79823 17.7977 8.07245 17.8477C8.04706 17.8547 8.02441 17.8707 7.99901 17.8782C8.06489 17.8897 8.13008 17.9049 8.19433 17.9235C8.27245 17.9446 8.35058 17.9625 8.4287 17.9793C8.55097 18.0035 8.56308 18.0223 8.62167 17.9137C8.6998 17.7684 8.78925 17.7184 8.85605 17.7004C8.88361 17.6941 8.90883 17.6801 8.9288 17.66C8.94877 17.64 8.96268 17.6147 8.96894 17.5871L9.3623 15.7637C9.37057 15.7255 9.39287 15.6917 9.4248 15.6692L11.1826 14.4231C11.203 14.4086 11.2197 14.3895 11.2312 14.3673C11.2427 14.345 11.2487 14.3204 11.2486 14.2953V11.9532C11.2489 11.9291 11.2435 11.9052 11.233 11.8836C11.2225 11.8619 11.2071 11.8429 11.1881 11.8282Z" fill="#3C5043" stroke="#3C5043" stroke-width="3" mask="url(#path-1-inside-1_0_53)"/>
<path d="M10.234 1.875C10.234 1.875 10.0914 1.8832 10.0625 1.88398C9.85078 1.89023 9.63958 1.90482 9.42891 1.92773C8.6609 2.01105 7.90876 2.20376 7.19531 2.5C7.29023 2.56563 7.12695 2.62578 7.12695 2.62578L7.38242 3.125H8.74961L9.68711 3.59375L10.5074 3.125L10.234 1.875ZM13.8367 4.68984L14.466 4.14297C14.4857 4.12587 14.5008 4.10412 14.51 4.07968C14.5191 4.05525 14.522 4.02892 14.5183 4.0031C14.5147 3.97727 14.5046 3.95277 14.4891 3.93183C14.4735 3.91089 14.453 3.89417 14.4293 3.8832L13.6945 3.54219C13.6572 3.52478 13.6145 3.5228 13.5757 3.5367C13.537 3.5506 13.5053 3.57925 13.4875 3.61641L13.1848 4.24961C13.1683 4.28423 13.1651 4.32369 13.1758 4.3605C13.1866 4.39731 13.2105 4.42888 13.243 4.44922L13.6516 4.70469C13.68 4.72235 13.7133 4.73044 13.7466 4.72777C13.7799 4.72509 13.8115 4.7118 13.8367 4.68984ZM16.7824 5.49492L16.5547 5.14336C16.5512 5.13789 16.548 5.13242 16.5449 5.12656C16.5039 5.04258 16.1645 4.35703 15.8809 4.09102C15.668 3.88984 15.6074 3.94766 15.5906 3.99219C15.581 4.01682 15.565 4.0384 15.5441 4.05469L14.4176 4.96523C14.3898 4.98768 14.3552 4.99995 14.3195 5H13.7363C13.7158 4.99998 13.6955 5.00401 13.6765 5.01185C13.6575 5.0197 13.6403 5.0312 13.6258 5.0457L13.157 5.51445C13.1425 5.52896 13.131 5.5462 13.1231 5.56517C13.1153 5.58413 13.1112 5.60447 13.1112 5.625C13.1112 5.64553 13.1153 5.66587 13.1231 5.68483C13.131 5.7038 13.1425 5.72104 13.157 5.73555L13.6258 6.2043C13.6403 6.2188 13.6575 6.2303 13.6765 6.23815C13.6955 6.24599 13.7158 6.25002 13.7363 6.25H16.6727C16.6937 6.25002 16.7146 6.24577 16.734 6.2375C16.7534 6.22924 16.771 6.21713 16.7856 6.20191C16.8002 6.18669 16.8115 6.16868 16.819 6.14894C16.8264 6.12921 16.8298 6.10818 16.8289 6.08711L16.8074 5.57344C16.8063 5.5455 16.7976 5.51839 16.7824 5.49492Z" fill="#3C5043"/>
<path d="M10 2.8125C11.6629 2.81236 13.2744 3.38881 14.5599 4.44362C15.8454 5.49844 16.7253 6.96635 17.0499 8.59725C17.3744 10.2281 17.1234 11.9211 16.3397 13.3877C15.5559 14.8543 14.2879 16.0037 12.7516 16.6402C11.2154 17.2767 9.50595 17.3608 7.91464 16.8782C6.32334 16.3956 4.9486 15.3761 4.02467 13.9935C3.10074 12.611 2.68478 10.9508 2.84766 9.29594C3.01055 7.64107 3.74221 6.09387 4.91797 4.91797C5.58374 4.24839 6.37572 3.71753 7.24806 3.35613C8.1204 2.99472 9.05576 2.80994 10 2.8125ZM10 1.25C5.16797 1.25 1.25 5.16797 1.25 10C1.25 14.832 5.16797 18.75 10 18.75C14.832 18.75 18.75 14.832 18.75 10C18.75 5.16797 14.832 1.25 10 1.25Z" fill="#3C5043"/>
</svg>
