<svg width="20" height="20" viewBox="0 0 20 20" fill="none" xmlns="http://www.w3.org/2000/svg">
<path d="M2.74512 1.75H17.3506C17.8907 1.75009 18.2529 2.11814 18.25 2.61035V17.25C18.25 17.8091 17.8271 18.25 17.3457 18.25H2.74512C2.22621 18.2499 1.75 17.7697 1.75 17.25V2.61328C1.75 2.15722 2.1633 1.75009 2.74512 1.75ZM3.66797 16.3369H7.1748V7.54199H3.66797V16.3369ZM12.9473 7.35938C12.1922 7.35938 11.6222 7.57268 11.1855 7.87793V7.54199H7.67871V16.3369H11.1855V11.3975C11.1855 11.1769 11.207 11.0394 11.2344 10.9736L11.2373 10.9668C11.3735 10.6263 11.6398 10.3564 12.0586 10.3564C12.3627 10.3565 12.5176 10.4619 12.6201 10.6133C12.7443 10.7967 12.8301 11.1101 12.8301 11.5752V16.3369H16.3369V15.8369L16.3379 11.2832C16.3379 10.0282 16.0028 9.03763 15.3779 8.35645C14.7493 7.67113 13.8826 7.35946 12.9473 7.35938ZM5.52148 3.66797C4.98813 3.66797 4.51719 3.86024 4.17969 4.20508C3.84431 4.5479 3.66806 5.01303 3.66797 5.51172C3.66797 6.51008 4.38698 7.35742 5.49023 7.35742H5.50781C6.04973 7.35742 6.52181 7.16035 6.85742 6.8125C7.19003 6.46768 7.361 6.00275 7.36133 5.5127H7.3623L7.36133 5.5C7.34978 5.01164 7.18237 4.55041 6.85352 4.20703C6.52064 3.85948 6.05553 3.66797 5.52148 3.66797Z" fill="black" stroke="#35363D"/>
</svg>
