<svg width="20" height="20" viewBox="0 0 20 20" fill="none" xmlns="http://www.w3.org/2000/svg">
<path d="M6.35449 1.75H13.6455C16.1768 1.75 18.25 3.82321 18.25 6.35449V13.6455C18.25 16.1768 16.1768 18.25 13.6455 18.25H6.35449C3.82321 18.25 1.75 16.1768 1.75 13.6455V6.35449C1.75 3.82321 3.82321 1.75 6.35449 1.75ZM17.792 6.35254C17.7886 5.25443 17.3507 4.20227 16.5742 3.42578C15.7977 2.64929 14.7456 2.21136 13.6475 2.20801H6.35254C5.25443 2.21136 4.20227 2.64929 3.42578 3.42578C2.64929 4.20227 2.21136 5.25443 2.20801 6.35254V13.6475C2.21136 14.7456 2.64929 15.7977 3.42578 16.5742C4.20227 17.3507 5.25443 17.7886 6.35254 17.792H13.6475C14.7456 17.7886 15.7977 17.3507 16.5742 16.5742C17.3507 15.7977 17.7886 14.7456 17.792 13.6475V6.35254Z" fill="black" stroke="#35363D"/>
<path d="M14.7395 6.35425C14.5231 6.35425 14.3117 6.2901 14.1318 6.16992C13.9519 6.04974 13.8117 5.87891 13.729 5.67906C13.6462 5.4792 13.6245 5.25929 13.6667 5.04712C13.7089 4.83495 13.8131 4.64006 13.9661 4.4871C14.119 4.33414 14.3139 4.22997 14.5261 4.18776C14.7382 4.14556 14.9582 4.16722 15.158 4.25001C15.3579 4.33279 15.5287 4.47298 15.6489 4.65284C15.7691 4.83271 15.8332 5.04418 15.8332 5.2605C15.8335 5.40422 15.8054 5.54658 15.7506 5.67942C15.6957 5.81226 15.6152 5.93296 15.5135 6.03459C15.4119 6.13621 15.2912 6.21676 15.1584 6.27162C15.0255 6.32648 14.8832 6.35456 14.7395 6.35425ZM10 7.08315C10.5769 7.08315 11.1408 7.25422 11.6205 7.57472C12.1002 7.89523 12.474 8.35077 12.6948 8.88374C12.9155 9.41672 12.9733 10.0032 12.8608 10.569C12.7482 11.1348 12.4704 11.6545 12.0625 12.0624C11.6546 12.4704 11.1348 12.7482 10.569 12.8607C10.0032 12.9732 9.41677 12.9155 8.88379 12.6947C8.35082 12.474 7.89528 12.1001 7.57477 11.6204C7.25427 11.1408 7.08321 10.5768 7.08321 9.99995C7.08403 9.22662 7.3916 8.4852 7.93843 7.93838C8.48526 7.39155 9.22667 7.08398 10 7.08315ZM10 5.62495C9.13471 5.62495 8.28885 5.88154 7.56938 6.36227C6.84992 6.843 6.28916 7.52628 5.95803 8.32571C5.6269 9.12514 5.54026 10.0048 5.70907 10.8535C5.87788 11.7021 6.29456 12.4817 6.90641 13.0935C7.51826 13.7054 8.29782 14.1221 9.14648 14.2909C9.99515 14.4597 10.8748 14.3731 11.6742 14.0419C12.4737 13.7108 13.157 13.15 13.6377 12.4306C14.1184 11.7111 14.375 10.8652 14.375 9.99995C14.375 8.83963 13.9141 7.72683 13.0936 6.90636C12.2731 6.08589 11.1603 5.62495 10 5.62495Z" fill="black"/>
</svg>
