<svg width="16" height="11" viewBox="0 0 16 11" fill="none" xmlns="http://www.w3.org/2000/svg">
<path d="M15.2988 10.0098C15.5268 10.0563 15.6982 10.2583 15.6982 10.5C15.6982 10.7417 15.5268 10.9437 15.2988 10.9902L15.1982 11H0.5C0.223929 10.9999 0 10.7761 0 10.5C0 10.2239 0.223929 10.0001 0.5 10H15.1982L15.2988 10.0098ZM15.2988 5.00977C15.5268 5.05627 15.6982 5.25827 15.6982 5.5C15.6982 5.74173 15.5268 5.94373 15.2988 5.99023L15.1982 6H0.5C0.223929 5.99992 0 5.77609 0 5.5C0 5.22391 0.223929 5.00008 0.5 5H15.1982L15.2988 5.00977ZM15.2988 0.00976562C15.5268 0.0562683 15.6982 0.258265 15.6982 0.5C15.6982 0.741735 15.5268 0.943732 15.2988 0.990234L15.1982 1H0.5C0.223929 0.999916 0 0.776091 0 0.5C0 0.223909 0.223929 8.36056e-05 0.5 0H15.1982L15.2988 0.00976562Z" fill="#222327"/>
</svg>
